<svg fill="none" height="48" viewBox="0 0 48 48" width="48" xmlns="http://www.w3.org/2000/svg"><g clip-rule="evenodd" fill-rule="evenodd"><path d="m24.0066 14.0535-9.94 9.94-9.94145-9.94 9.94145-9.93997z" fill="#ffb50d"/><path d="m24.0066 33.9346-9.9399-9.94 9.9399-9.9415" fill="#27e3cc"/><path d="m24.0066 14.0536 9.94 9.94-9.94 9.9415" fill="#5203e9"/><path d="m43.8869 33.9346-9.94 9.9385-9.94-9.9385 9.94-9.94z" fill="#3e7eff"/><path d="m43.8824 14.058-9.9399 9.94 9.9399 9.9399c5.4901-5.49 5.4901-14.3914 0-19.8799" fill="#08c0a6"/><path d="m24.0022 14.058 9.94 9.94 9.9399-9.94c-5.4885-5.49008-14.3898-5.49008-19.8799 0" fill="#27e3cc"/><path d="m4.11754 33.9421 9.93996-9.94-9.93996-9.94c-5.49005 5.4901-5.49005 14.3914 0 19.88" fill="#5203e9"/><path d="m14.0618 4.11754 9.9399 9.93996 9.9415-9.93996c-5.49-5.49005-14.3914-5.49005-19.8814 0" fill="#ffdd0f"/><path d="m23.9978 33.942-9.94-9.9399-9.93994 9.9399c5.49006 5.4901 14.38984 5.4901 19.87994 0" fill="#3b03a8"/><path d="m33.9382 43.8825-9.9399-9.94-9.9415 9.94c5.49 5.49 14.3914 5.49 19.8814 0" fill="#2c50ff"/></g></svg>